<?xml version="1.0" encoding="UTF-8" standalone="no"?>
<!-- Generator: Adobe Illustrator 23.0.0, SVG Export Plug-In . SVG Version: 6.00 Build 0)  -->
<svg xmlns:dc="http://purl.org/dc/elements/1.1/" xmlns:cc="http://creativecommons.org/ns#" xmlns:rdf="http://www.w3.org/1999/02/22-rdf-syntax-ns#" xmlns:svg="http://www.w3.org/2000/svg" xmlns="http://www.w3.org/2000/svg" xmlns:sodipodi="http://sodipodi.sourceforge.net/DTD/sodipodi-0.dtd" xmlns:inkscape="http://www.inkscape.org/namespaces/inkscape" version="1.1" id="Layer_1" x="0px" y="0px" viewBox="0 0 256 255.99999" xml:space="preserve" width="256" height="256"><metadata id="metadata293"><rdf:RDF><cc:Work rdf:about=""><dc:format>image/svg+xml</dc:format><dc:type rdf:resource="http://purl.org/dc/dcmitype/StillImage"/><dc:title/></cc:Work></rdf:RDF></metadata><defs id="defs291"/><sodipodi:namedview pagecolor="#ffffff" bordercolor="#666666" borderopacity="1" objecttolerance="10" gridtolerance="10" guidetolerance="10" inkscape:pageopacity="0" inkscape:pageshadow="2" inkscape:window-height="1049" id="namedview289" showgrid="false"/>
<style type="text/css" id="style2">
	.st0{fill:none;}
	.st1{font-family:'RobotoMono-Bold';}
	.st2{font-size:53px;}
	.st3{fill:#FFFFFF;}
	.st4{fill:none;stroke:#000000;stroke-width:2.5;stroke-miterlimit:10;}
	.st5{fill:none;stroke:#ED1C24;stroke-miterlimit:10;}
</style>












<g id="g1223" transform="matrix(2.8218695,0,0,2.8218695,16.028168,-466.39859)"><g transform="translate(-3.8,163.06)" id="g12">
	<g id="g10">
		<g id="g8">
			<path inkscape:connector-curvature="0" id="path6" d="M 77.64,20.74 49,3.74 C 47.29,2.73 45.38,2.22 43.48,2.22 c -1.9,0 -3.82,0.51 -5.52,1.52 l -28.64,17 C 5.9,22.77 3.8,26.52 3.8,30.58 v 34 c 0,4.06 2.11,7.81 5.52,9.84 l 28.64,17 c 1.71,1.01 3.62,1.52 5.52,1.52 1.91,0 3.81,-0.51 5.52,-1.52 l 28.64,-17 c 3.42,-2.03 5.52,-5.78 5.52,-9.84 v -34 c 0.01,-4.06 -2.1,-7.81 -5.52,-9.84 z m -22.18,53.09 0.05,2.44 c 0,0.29 -0.19,0.63 -0.42,0.75 l -1.45,0.83 c -0.23,0.12 -0.42,-0.03 -0.42,-0.32 l -0.02,-2.4 c -1.24,0.52 -2.49,0.64 -3.3,0.32 -0.15,-0.06 -0.22,-0.28 -0.16,-0.54 l 0.52,-2.21 c 0.04,-0.17 0.13,-0.35 0.26,-0.46 0.04,-0.04 0.09,-0.08 0.14,-0.1 0.08,-0.04 0.16,-0.05 0.23,-0.02 0.86,0.29 1.97,0.15 3.03,-0.38 1.35,-0.68 2.25,-2.06 2.24,-3.43 -0.01,-1.24 -0.68,-1.76 -2.32,-1.77 -2.08,0.01 -4.02,-0.4 -4.05,-3.47 -0.03,-2.52 1.28,-5.14 3.36,-6.8 L 53.12,53.8 c 0,-0.3 0.18,-0.64 0.42,-0.76 l 1.4,-0.89 c 0.23,-0.12 0.42,0.03 0.42,0.33 l 0.02,2.47 c 1.03,-0.41 1.93,-0.52 2.74,-0.33 0.18,0.05 0.25,0.29 0.18,0.57 l -0.54,2.19 c -0.04,0.17 -0.13,0.33 -0.25,0.44 -0.05,0.05 -0.1,0.08 -0.14,0.11 -0.07,0.04 -0.15,0.05 -0.21,0.04 -0.37,-0.08 -1.25,-0.28 -2.64,0.43 -1.46,0.74 -1.96,2 -1.96,2.94 0.01,1.12 0.59,1.46 2.57,1.5 2.65,0.04 3.79,1.2 3.82,3.86 0.05,2.6 -1.35,5.41 -3.49,7.13 z m 15.02,-4.11 c 0,0.23 -0.03,0.44 -0.22,0.55 l -7.24,4.4 c -0.19,0.11 -0.34,0.02 -0.34,-0.21 v -1.87 c 0,-0.23 0.14,-0.35 0.33,-0.46 l 7.13,-4.27 c 0.19,-0.11 0.34,-0.02 0.34,0.21 z M 75.45,27.91 48.36,44.64 c -3.38,1.98 -5.87,4.19 -5.87,8.26 v 33.38 c 0,2.44 0.98,4.02 2.5,4.48 -0.5,0.09 -1,0.15 -1.5,0.15 -1.59,0 -3.15,-0.43 -4.52,-1.25 l -28.64,-17 C 7.53,71 5.79,67.9 5.79,64.56 v -34 c 0,-3.33 1.74,-6.43 4.54,-8.1 l 28.64,-17 c 1.37,-0.82 2.94,-1.25 4.52,-1.25 1.58,0 3.14,0.46 4.51,1.27 l 28.64,17 c 2.36,1.4 3.95,3.83 4.4,6.55 C 80.09,27 77.95,26.45 75.45,27.91 Z"/>
		</g>
	</g>
</g><g transform="translate(-3.8,163.06)" id="g284">
	<path inkscape:connector-curvature="0" id="path50" d="m 11.36,68.64 c 0.52,0.11 0.86,0.63 0.84,1.29 -0.03,0.87 -0.57,1.36 -1.47,1.34 L 10.25,71.26 C 9.41,71.24 8.88,70.68 8.9,69.87 8.92,69.04 9.49,68.57 10.41,68.6 l 0.31,0.01 -0.06,2.16 h 0.13 c 0.58,0.02 0.97,-0.32 0.98,-0.86 0.01,-0.4 -0.15,-0.7 -0.42,-0.8 z m -1.08,2.12 0.05,-1.67 c -0.61,-0.02 -0.98,0.28 -1,0.79 -0.01,0.53 0.34,0.86 0.95,0.88 z"/>
	<path inkscape:connector-curvature="0" id="path52" d="M 9.85,67.05 8,67 8.02,66.48 9.87,66.54 Z m 0.04,-1.14 -1.85,-0.06 0.02,-0.53 1.85,0.06 z"/>
	<path inkscape:connector-curvature="0" id="path54" d="M 9.96,63.35 8.11,63.29 8.13,62.77 9.98,62.83 Z M 10,62.21 8.15,62.15 l 0.02,-0.53 1.85,0.06 z"/>
	<path inkscape:connector-curvature="0" id="path56" d="m 9.27,59.69 2.67,-0.81 v -0.04 l -2.62,-0.96 0.02,-0.53 3.14,1.25 -0.02,0.55 -3.21,1.07 z"/>
	<path inkscape:connector-curvature="0" id="path58" d="m 13.01,54.4 -5.09,1.91 0.01,-0.49 5.09,-1.91 z"/>
	<path inkscape:connector-curvature="0" id="path60" d="m 11.75,52.77 c -0.56,-0.02 -0.88,-0.43 -0.9,-1.16 l -0.02,-0.87 -0.29,-0.01 c -0.4,-0.01 -0.63,0.22 -0.64,0.67 -0.01,0.37 0.14,0.63 0.41,0.72 L 10.3,52.61 C 9.79,52.54 9.46,52.03 9.48,51.38 9.5,50.63 9.9,50.22 10.56,50.24 l 2.18,0.06 -0.01,0.47 -0.48,-0.01 v 0.05 c 0.34,0.16 0.52,0.51 0.5,0.98 -0.03,0.61 -0.42,1 -1,0.98 z m -0.16,-2 -0.37,-0.01 0.01,0.82 c 0.01,0.45 0.19,0.69 0.52,0.7 0.33,0.01 0.55,-0.23 0.56,-0.63 0.01,-0.5 -0.3,-0.87 -0.72,-0.88 z"/>
	<path inkscape:connector-curvature="0" id="path62" d="M 10.41,48.52 8.56,48.46 8.58,47.94 10.42,48 Z m 0.03,-1.14 -1.85,-0.06 0.01,-0.52 1.85,0.06 z"/>
	<path inkscape:connector-curvature="0" id="path64" d="m 10.52,44.81 -1.85,-0.06 0.02,-0.52 1.85,0.06 z m 0.03,-1.14 -1.85,-0.05 0.02,-0.53 1.85,0.06 z"/>
	<path inkscape:connector-curvature="0" id="path66" d="m 13.45,39.57 -5.09,1.91 0.01,-0.49 5.09,-1.91 z"/>
	<path inkscape:connector-curvature="0" id="path68" d="m 13.1,37.88 -0.41,-0.01 0.03,-1.09 -3.6,-0.11 -0.03,1.08 -0.41,-0.01 0.05,-1.58 4.01,0.12 0.03,-1.05 0.41,0.01 z"/>
	<path inkscape:connector-curvature="0" id="path70" d="M 10.85,33.69 9,33.63 l 0.02,-0.52 1.85,0.06 z m 0.03,-1.14 -1.85,-0.06 0.02,-0.53 1.85,0.06 z"/>
	<path inkscape:connector-curvature="0" id="path72" d="m 17.07,73.03 c -0.37,0.05 -0.62,0.35 -0.63,0.76 -0.02,0.55 0.35,0.87 1.03,0.89 l 0.29,0.01 c 0.68,0.02 1.07,-0.28 1.08,-0.83 0.01,-0.41 -0.21,-0.73 -0.57,-0.8 l 0.01,-0.49 c 0.64,0.1 1.03,0.59 1,1.3 -0.03,0.86 -0.57,1.35 -1.48,1.32 l -0.42,-0.01 c -0.91,-0.03 -1.43,-0.55 -1.4,-1.41 0.02,-0.7 0.43,-1.17 1.09,-1.23 z"/>
	<path inkscape:connector-curvature="0" id="path74" d="m 17.02,69.83 c 0.23,-0.83 0.59,-1.17 1.22,-1.15 0.7,0.02 1.15,0.53 1.19,1.32 l 0.33,0.01 -0.01,0.35 -0.33,-0.01 c -0.08,0.77 -0.55,1.26 -1.24,1.29 l 0.01,-0.47 c 0.42,-0.03 0.72,-0.35 0.79,-0.83 l -1.6,-0.05 -0.02,0.06 c -0.22,0.79 -0.6,1.14 -1.21,1.12 -0.66,-0.02 -1.1,-0.51 -1.14,-1.25 l -0.33,-0.01 0.01,-0.35 0.33,0.01 c 0.08,-0.7 0.54,-1.16 1.18,-1.17 l -0.01,0.46 c -0.39,0.04 -0.67,0.31 -0.73,0.72 l 1.52,0.05 z m -1.56,0.4 c 0.04,0.46 0.3,0.75 0.7,0.76 0.36,0.01 0.57,-0.19 0.73,-0.72 z M 19,69.99 c -0.04,-0.48 -0.33,-0.81 -0.74,-0.83 -0.38,-0.01 -0.61,0.22 -0.77,0.78 z"/>
	<path inkscape:connector-curvature="0" id="path76" d="m 19.87,65.78 c -0.02,0.71 -0.25,0.93 -0.98,0.91 l -0.66,-0.02 c -0.45,-0.01 -0.72,0.24 -0.67,0.93 l -0.53,-0.02 c 0.09,-0.68 -0.16,-0.95 -0.62,-0.97 l -0.66,-0.02 c -0.72,-0.02 -0.94,-0.25 -0.92,-0.97 l 0.01,-0.4 0.4,0.01 -0.01,0.32 c -0.01,0.44 0.09,0.53 0.6,0.54 l 0.78,0.02 c 0.41,0.01 0.67,0.33 0.67,0.92 h 0.05 c 0.03,-0.59 0.31,-0.89 0.72,-0.88 l 0.78,0.02 c 0.51,0.02 0.61,-0.07 0.63,-0.51 l 0.01,-0.32 0.4,0.01 z"/>
	<path inkscape:connector-curvature="0" id="path78" d="m 17.7,62.39 0.7,-1.2 0.37,0.22 -0.77,1.17 1.4,0.01 -0.01,0.42 -1.4,-0.08 0.7,1.22 -0.38,0.2 -0.63,-1.24 -0.7,1.2 -0.37,-0.22 0.77,-1.18 -1.4,-0.01 0.01,-0.42 1.4,0.08 -0.7,-1.22 0.38,-0.2 z"/>
	<path inkscape:connector-curvature="0" id="path80" d="m 18,60.49 c -0.01,0 -0.05,0 -0.07,0 -0.57,-0.02 -0.94,-0.36 -0.93,-0.85 0.01,-0.28 0.12,-0.49 0.39,-0.74 0.22,-0.2 0.3,-0.32 0.3,-0.46 0.01,-0.23 -0.17,-0.37 -0.51,-0.4 l 0.01,-0.46 h 0.06 c 0.58,0.02 0.94,0.35 0.93,0.85 -0.01,0.29 -0.12,0.49 -0.39,0.74 -0.22,0.2 -0.3,0.31 -0.3,0.45 -0.01,0.24 0.16,0.38 0.51,0.41 z"/>
	<path inkscape:connector-curvature="0" id="path82" d="m 20.15,56.54 -0.4,-0.01 0.01,-0.32 c 0.01,-0.44 -0.09,-0.53 -0.6,-0.54 l -0.78,-0.02 c -0.41,-0.01 -0.67,-0.33 -0.67,-0.92 h -0.05 c -0.03,0.59 -0.31,0.89 -0.72,0.88 l -0.78,-0.02 c -0.51,-0.02 -0.61,0.07 -0.63,0.51 l -0.01,0.32 -0.4,-0.01 0.01,-0.4 c 0.02,-0.71 0.25,-0.93 0.98,-0.91 l 0.66,0.02 c 0.45,0.01 0.72,-0.24 0.67,-0.93 l 0.53,0.02 c -0.09,0.68 0.17,0.95 0.62,0.97 l 0.66,0.02 c 0.72,0.02 0.94,0.25 0.92,0.97 z"/>
	<path inkscape:connector-curvature="0" id="path84" d="m 19.93,50.38 -0.01,0.48 -0.56,-0.02 v 0.04 c 0.39,0.18 0.6,0.55 0.59,1.03 -0.02,0.69 -0.44,1.05 -1.21,1.03 l -2.06,-0.06 0.01,-0.5 1.94,0.06 c 0.57,0.02 0.85,-0.21 0.87,-0.7 0.02,-0.52 -0.34,-0.89 -0.88,-0.9 l -1.87,-0.06 0.01,-0.5 z"/>
	<path inkscape:connector-curvature="0" id="path86" d="m 17.6,48.73 -1.85,-0.06 0.02,-0.52 1.85,0.06 z m 0.04,-1.14 -1.85,-0.06 0.02,-0.53 1.85,0.06 z"/>
	<path inkscape:connector-curvature="0" id="path88" d="m 17.79,43.88 c 0.23,-0.83 0.59,-1.17 1.22,-1.15 0.7,0.02 1.15,0.53 1.19,1.32 l 0.33,0.01 -0.01,0.35 -0.32,-0.01 c -0.08,0.77 -0.55,1.26 -1.24,1.29 l 0.01,-0.47 c 0.42,-0.03 0.72,-0.35 0.79,-0.83 l -1.6,-0.05 -0.02,0.06 c -0.22,0.79 -0.6,1.14 -1.21,1.12 -0.66,-0.02 -1.1,-0.51 -1.14,-1.25 l -0.33,-0.01 0.01,-0.35 0.33,0.01 c 0.08,-0.7 0.54,-1.16 1.18,-1.17 l -0.01,0.46 c -0.39,0.04 -0.67,0.31 -0.73,0.72 l 1.52,0.05 z m -1.56,0.4 c 0.04,0.46 0.3,0.75 0.7,0.76 0.36,0.01 0.57,-0.19 0.73,-0.72 z m 3.54,-0.24 c -0.04,-0.48 -0.33,-0.81 -0.74,-0.83 -0.38,-0.01 -0.61,0.22 -0.77,0.78 z"/>
	<path inkscape:connector-curvature="0" id="path90" d="m 20.65,39.83 c -0.02,0.71 -0.25,0.93 -0.98,0.91 l -0.66,-0.02 c -0.45,-0.01 -0.72,0.24 -0.67,0.93 l -0.53,-0.02 c 0.09,-0.68 -0.16,-0.95 -0.62,-0.97 l -0.66,-0.02 c -0.72,-0.02 -0.94,-0.25 -0.92,-0.97 l 0.01,-0.4 0.4,0.01 -0.01,0.32 c -0.01,0.44 0.09,0.53 0.6,0.54 l 0.78,0.02 c 0.41,0.01 0.67,0.33 0.67,0.92 h 0.05 c 0.03,-0.59 0.31,-0.89 0.72,-0.88 l 0.78,0.02 c 0.51,0.02 0.61,-0.07 0.63,-0.51 l 0.01,-0.32 0.4,0.01 z"/>
	<path inkscape:connector-curvature="0" id="path92" d="M 18.7,38.32 18.15,38.3 c -1.43,-0.04 -2.17,-0.61 -2.14,-1.63 0.03,-0.97 0.69,-1.5 1.84,-1.47 l 0.88,0.03 c 0.47,0.01 0.74,0.27 0.73,0.69 l -0.02,0.75 c -0.01,0.22 -0.15,0.35 -0.36,0.35 l -1.2,-0.04 c -0.22,-0.01 -0.35,-0.12 -0.35,-0.29 0.01,-0.17 0.15,-0.28 0.37,-0.27 l 1.22,0.04 0.01,-0.48 c 0.01,-0.27 -0.1,-0.37 -0.39,-0.38 l -0.82,-0.02 c -1,-0.03 -1.52,0.35 -1.54,1.12 -0.02,0.82 0.54,1.21 1.82,1.25 l 0.45,0.01 c 1.3,0.04 1.9,-0.35 1.92,-1.24 0.01,-0.26 -0.03,-0.54 -0.09,-0.67 l 0.35,0.01 c 0.06,0.14 0.1,0.43 0.09,0.72 -0.04,1.05 -0.8,1.59 -2.22,1.54 z"/>
	<path inkscape:connector-curvature="0" id="path94" d="M 25.26,82.86 C 24.7,82.84 24.38,82.43 24.36,81.7 l -0.02,-0.87 -0.29,-0.01 c -0.4,-0.01 -0.63,0.22 -0.64,0.67 -0.01,0.37 0.14,0.63 0.41,0.72 l -0.01,0.49 c -0.51,-0.07 -0.84,-0.58 -0.82,-1.23 0.02,-0.75 0.42,-1.16 1.08,-1.14 l 2.18,0.06 -0.01,0.47 -0.48,-0.01 v 0.05 c 0.34,0.16 0.52,0.51 0.5,0.98 -0.03,0.6 -0.42,1 -1,0.98 z m -0.16,-2.01 -0.37,-0.01 0.01,0.82 c 0.01,0.45 0.19,0.69 0.52,0.7 0.33,0.01 0.55,-0.23 0.56,-0.63 0.01,-0.49 -0.29,-0.87 -0.72,-0.88 z"/>
	<path inkscape:connector-curvature="0" id="path96" d="m 22.05,77.7 c 0.02,-0.71 0.48,-1.2 1.1,-1.18 0.43,0.01 0.76,0.22 0.99,0.63 0.21,0.36 0.37,0.48 0.68,0.49 l 0.19,0.01 -0.02,0.51 -0.27,-0.01 c -0.39,-0.01 -0.64,-0.19 -0.88,-0.59 -0.2,-0.34 -0.38,-0.47 -0.69,-0.48 -0.37,-0.01 -0.63,0.26 -0.64,0.67 -0.01,0.42 0.23,0.7 0.65,0.75 l -0.01,0.49 c -0.7,-0.06 -1.12,-0.56 -1.1,-1.29 z m 3.89,0.6 c -0.23,-0.01 -0.41,-0.19 -0.4,-0.41 0.01,-0.22 0.2,-0.4 0.43,-0.39 0.23,0.01 0.41,0.19 0.4,0.41 -0.01,0.22 -0.2,0.4 -0.43,0.39 z"/>
	<path inkscape:connector-curvature="0" id="path98" d="m 25.33,75.47 0.02,-0.51 c 0.39,0 0.66,-0.29 0.67,-0.71 0.01,-0.48 -0.27,-0.76 -0.79,-0.77 l -2.55,-0.08 -0.04,1.45 -0.46,-0.01 0.06,-1.97 3.02,0.09 c 0.81,0.02 1.28,0.52 1.25,1.3 -0.02,0.74 -0.5,1.23 -1.18,1.21 z"/>
	<path inkscape:connector-curvature="0" id="path100" d="m 24.17,70.43 c -0.59,-0.13 -0.88,-0.54 -0.86,-1.15 0.01,-0.18 0.04,-0.35 0.08,-0.46 l 0.56,0.02 c -0.06,0.14 -0.1,0.35 -0.1,0.52 -0.02,0.7 0.45,1.13 1.26,1.16 l 1.02,0.03 0.03,-0.98 0.4,0.01 -0.06,2.11 -0.4,-0.01 0.02,-0.64 -2.38,-0.07 -0.02,0.71 -0.4,-0.01 0.04,-1.19 0.81,0.02 z"/>
	<path inkscape:connector-curvature="0" id="path102" d="m 24.03,66.66 2.6,0.7 -0.01,0.49 -4.25,0.6 0.01,-0.49 1.7,-0.2 1.77,-0.2 v -0.03 l -2.47,-0.67 0.01,-0.46 2.5,-0.52 v -0.03 l -1.75,-0.31 -1.69,-0.31 0.01,-0.49 4.2,0.85 -0.01,0.49 -2.64,0.55 z"/>
	<path inkscape:connector-curvature="0" id="path104" d="m 26.72,64.26 -0.41,-0.01 0.03,-1.09 -2.35,-0.07 -0.03,1.08 -0.41,-0.01 0.05,-1.57 2.76,0.08 0.03,-1.05 0.41,0.01 z m -4.34,-1.02 c -0.23,-0.01 -0.4,-0.19 -0.39,-0.43 0.01,-0.23 0.19,-0.41 0.42,-0.4 0.23,0.01 0.4,0.19 0.4,0.43 -0.01,0.24 -0.2,0.41 -0.43,0.4 z"/>
	<path inkscape:connector-curvature="0" id="path106" d="m 24.49,59.5 -1.85,-0.06 0.02,-0.52 1.85,0.06 z"/>
	<path inkscape:connector-curvature="0" id="path108" d="m 24.66,55.22 c 0.23,-0.83 0.59,-1.17 1.22,-1.15 0.7,0.02 1.15,0.53 1.19,1.32 l 0.33,0.01 -0.01,0.35 -0.33,-0.01 c -0.08,0.77 -0.55,1.26 -1.24,1.29 l 0.01,-0.47 c 0.42,-0.03 0.72,-0.35 0.79,-0.83 L 25.02,55.68 25,55.73 c -0.22,0.79 -0.6,1.14 -1.21,1.12 -0.66,-0.02 -1.1,-0.51 -1.14,-1.25 l -0.33,-0.01 0.01,-0.35 0.33,0.01 c 0.08,-0.7 0.54,-1.16 1.18,-1.17 l -0.01,0.46 c -0.39,0.04 -0.67,0.31 -0.73,0.72 l 1.52,0.05 z m -1.56,0.4 c 0.04,0.46 0.3,0.75 0.7,0.76 0.36,0.01 0.57,-0.19 0.73,-0.72 z m 3.53,-0.25 c -0.04,-0.48 -0.33,-0.81 -0.74,-0.83 -0.38,-0.01 -0.61,0.22 -0.77,0.78 z"/>
	<path inkscape:connector-curvature="0" id="path110" d="m 27.51,51.16 c -0.02,0.71 -0.25,0.93 -0.98,0.91 l -0.66,-0.02 c -0.45,-0.01 -0.72,0.24 -0.67,0.93 l -0.53,-0.02 c 0.09,-0.68 -0.16,-0.95 -0.62,-0.97 L 23.39,51.97 C 22.67,51.95 22.45,51.72 22.47,51 l 0.01,-0.4 0.4,0.01 -0.01,0.32 c -0.01,0.44 0.09,0.53 0.6,0.54 l 0.78,0.02 c 0.41,0.01 0.67,0.33 0.67,0.92 h 0.05 c 0.03,-0.59 0.31,-0.89 0.72,-0.88 l 0.78,0.02 c 0.51,0.02 0.61,-0.07 0.63,-0.51 l 0.01,-0.32 0.4,0.01 z"/>
	<path inkscape:connector-curvature="0" id="path112" d="m 25.56,49.66 -0.55,-0.02 c -1.43,-0.04 -2.17,-0.61 -2.14,-1.63 0.03,-0.97 0.69,-1.5 1.84,-1.47 l 0.88,0.03 c 0.47,0.01 0.74,0.27 0.73,0.69 l -0.02,0.75 c -0.01,0.22 -0.15,0.35 -0.36,0.35 l -1.2,-0.04 c -0.22,-0.01 -0.35,-0.12 -0.35,-0.29 0.01,-0.17 0.15,-0.28 0.37,-0.27 l 1.22,0.04 0.01,-0.48 C 26,47.05 25.89,46.95 25.6,46.94 l -0.82,-0.02 c -1,-0.03 -1.52,0.35 -1.54,1.12 -0.02,0.82 0.54,1.21 1.82,1.25 l 0.45,0.01 c 1.3,0.04 1.9,-0.35 1.92,-1.24 0.01,-0.26 -0.03,-0.54 -0.09,-0.67 l 0.35,0.01 c 0.06,0.14 0.1,0.43 0.09,0.72 -0.03,1.05 -0.79,1.58 -2.22,1.54 z"/>
	<path inkscape:connector-curvature="0" id="path114" d="m 24.7,43.46 0.99,0.23 0.02,-0.61 0.43,0.1 -0.02,0.61 1.2,0.28 -0.01,0.42 -1.2,-0.28 -0.03,0.87 1.2,0.27 -0.01,0.42 -1.2,-0.28 -0.02,0.61 -0.43,-0.1 0.02,-0.61 -0.99,-0.22 -0.02,0.61 -0.43,-0.1 0.02,-0.61 -1.16,-0.27 0.01,-0.42 1.16,0.27 0.03,-0.86 -1.16,-0.27 0.01,-0.42 1.16,0.27 0.02,-0.61 0.43,0.1 z m 0.96,1.51 0.03,-0.88 -1.01,-0.23 -0.03,0.88 z"/>
	<path inkscape:connector-curvature="0" id="path116" d="m 27.84,40 -0.05,1.55 -0.4,-0.01 0.03,-1.06 -4.23,-0.13 -0.03,1.06 -0.4,-0.01 0.05,-1.54"/>
	<path inkscape:connector-curvature="0" id="path118" d="m 31.13,84.58 c -0.37,0.05 -0.62,0.35 -0.63,0.76 -0.02,0.55 0.35,0.87 1.03,0.89 l 0.29,0.01 c 0.68,0.02 1.07,-0.28 1.08,-0.83 0.01,-0.41 -0.21,-0.73 -0.57,-0.8 l 0.01,-0.49 c 0.64,0.1 1.03,0.59 1,1.3 -0.03,0.86 -0.57,1.35 -1.48,1.32 l -0.42,-0.01 c -0.91,-0.03 -1.43,-0.55 -1.4,-1.41 0.02,-0.7 0.43,-1.17 1.09,-1.23 z"/>
	<path inkscape:connector-curvature="0" id="path120" d="m 31.08,81.38 c 0.23,-0.83 0.59,-1.17 1.22,-1.15 0.7,0.02 1.15,0.53 1.19,1.32 l 0.33,0.01 -0.01,0.35 -0.33,-0.01 c -0.08,0.77 -0.55,1.26 -1.24,1.29 l 0.01,-0.47 c 0.42,-0.03 0.72,-0.35 0.79,-0.83 l -1.6,-0.05 -0.02,0.06 c -0.22,0.79 -0.6,1.14 -1.21,1.12 -0.66,-0.02 -1.1,-0.51 -1.14,-1.25 l -0.33,-0.01 0.01,-0.35 0.33,0.01 c 0.08,-0.7 0.54,-1.16 1.18,-1.17 l -0.01,0.46 c -0.39,0.04 -0.67,0.31 -0.73,0.72 l 1.52,0.05 z m -1.56,0.4 c 0.04,0.46 0.3,0.75 0.7,0.76 0.36,0.01 0.57,-0.19 0.73,-0.72 z m 3.54,-0.24 c -0.04,-0.48 -0.33,-0.81 -0.74,-0.83 -0.38,-0.01 -0.61,0.22 -0.77,0.78 z"/>
	<path inkscape:connector-curvature="0" id="path122" d="m 33.94,77.33 c -0.02,0.71 -0.25,0.93 -0.98,0.91 L 32.3,78.22 c -0.45,-0.01 -0.72,0.24 -0.67,0.93 L 31.1,79.13 c 0.09,-0.68 -0.16,-0.95 -0.62,-0.97 L 29.82,78.14 C 29.1,78.12 28.88,77.89 28.9,77.17 l 0.01,-0.4 0.4,0.01 -0.01,0.32 c -0.01,0.44 0.09,0.53 0.6,0.54 l 0.78,0.02 c 0.41,0.01 0.67,0.33 0.67,0.92 h 0.05 c 0.03,-0.59 0.31,-0.89 0.72,-0.88 l 0.78,0.02 c 0.51,0.02 0.61,-0.07 0.63,-0.51 l 0.01,-0.32 0.4,0.01 z"/>
	<path inkscape:connector-curvature="0" id="path124" d="m 31.76,73.94 0.7,-1.2 0.37,0.22 -0.77,1.18 1.4,0.01 -0.01,0.42 -1.4,-0.08 0.7,1.22 -0.38,0.2 -0.63,-1.24 -0.7,1.2 -0.37,-0.22 0.77,-1.18 -1.4,-0.01 0.01,-0.42 1.4,0.08 -0.7,-1.22 0.38,-0.2 z"/>
	<path inkscape:connector-curvature="0" id="path126" d="m 32.06,72.04 c -0.01,0 -0.05,0 -0.07,0 -0.57,-0.02 -0.94,-0.36 -0.93,-0.85 0.01,-0.28 0.12,-0.49 0.39,-0.74 0.22,-0.2 0.3,-0.32 0.3,-0.46 0.01,-0.23 -0.17,-0.37 -0.51,-0.4 l 0.01,-0.46 h 0.06 c 0.58,0.02 0.94,0.35 0.93,0.85 -0.01,0.29 -0.12,0.49 -0.39,0.74 -0.22,0.2 -0.3,0.31 -0.3,0.45 -0.01,0.24 0.16,0.38 0.51,0.41 z"/>
	<path inkscape:connector-curvature="0" id="path128" d="m 32.17,68.33 c -0.01,0 -0.05,0 -0.07,0 -0.57,-0.02 -0.94,-0.36 -0.93,-0.85 0.01,-0.28 0.12,-0.49 0.39,-0.74 0.22,-0.2 0.3,-0.32 0.3,-0.46 0.01,-0.23 -0.17,-0.37 -0.51,-0.4 l 0.01,-0.46 h 0.06 c 0.58,0.02 0.94,0.35 0.93,0.85 -0.01,0.29 -0.12,0.49 -0.39,0.74 -0.22,0.2 -0.3,0.31 -0.3,0.45 -0.01,0.24 0.16,0.38 0.51,0.41 z"/>
	<path inkscape:connector-curvature="0" id="path130" d="m 34.32,64.38 -0.4,-0.01 0.01,-0.32 c 0.01,-0.44 -0.09,-0.53 -0.6,-0.54 l -0.78,-0.02 c -0.41,-0.01 -0.67,-0.33 -0.67,-0.92 h -0.05 c -0.03,0.59 -0.31,0.89 -0.72,0.88 l -0.78,-0.02 c -0.51,-0.02 -0.61,0.07 -0.63,0.51 l -0.01,0.32 -0.4,-0.01 0.01,-0.4 c 0.02,-0.71 0.25,-0.93 0.98,-0.91 l 0.66,0.02 c 0.45,0.01 0.72,-0.24 0.67,-0.93 l 0.53,0.02 c -0.09,0.68 0.17,0.95 0.62,0.97 l 0.66,0.02 c 0.72,0.02 0.94,0.25 0.92,0.97 z"/>
	<path inkscape:connector-curvature="0" id="path132" d="m 34.1,58.22 -0.01,0.48 -0.56,-0.02 v 0.04 c 0.39,0.18 0.6,0.55 0.59,1.03 -0.02,0.69 -0.44,1.05 -1.21,1.03 l -2.06,-0.06 0.01,-0.5 1.94,0.06 c 0.57,0.02 0.85,-0.21 0.87,-0.7 0.02,-0.52 -0.34,-0.89 -0.88,-0.9 l -1.87,-0.06 0.01,-0.5 z"/>
	<path inkscape:connector-curvature="0" id="path134" d="m 31.78,56.57 -1.85,-0.06 0.01,-0.51 1.85,0.06 z m 0.03,-1.13 -1.85,-0.06 0.02,-0.53 1.85,0.06 z"/>
	<path inkscape:connector-curvature="0" id="path136" d="m 31.97,51.72 c 0.23,-0.83 0.59,-1.17 1.22,-1.15 0.7,0.02 1.15,0.53 1.19,1.32 l 0.33,0.01 -0.01,0.35 -0.33,-0.01 c -0.08,0.77 -0.55,1.26 -1.24,1.29 l 0.01,-0.47 c 0.42,-0.03 0.72,-0.35 0.79,-0.83 l -1.6,-0.05 -0.02,0.06 c -0.22,0.79 -0.6,1.14 -1.21,1.12 -0.66,-0.02 -1.1,-0.51 -1.14,-1.25 l -0.33,-0.01 0.01,-0.35 0.33,0.01 c 0.08,-0.7 0.54,-1.16 1.18,-1.17 l -0.01,0.46 c -0.39,0.04 -0.67,0.31 -0.73,0.72 l 1.52,0.05 z m -1.57,0.4 c 0.04,0.46 0.3,0.75 0.7,0.76 0.36,0.01 0.57,-0.19 0.73,-0.72 z m 3.54,-0.24 C 33.9,51.4 33.61,51.07 33.2,51.05 c -0.38,-0.01 -0.61,0.22 -0.77,0.78 z"/>
	<path inkscape:connector-curvature="0" id="path138" d="m 34.82,47.67 c -0.02,0.71 -0.25,0.93 -0.98,0.91 l -0.66,-0.02 c -0.45,-0.01 -0.72,0.24 -0.67,0.93 L 31.98,49.47 C 32.07,48.79 31.82,48.52 31.36,48.5 L 30.7,48.48 c -0.72,-0.02 -0.94,-0.25 -0.92,-0.97 l 0.01,-0.4 0.4,0.01 -0.01,0.32 c -0.01,0.44 0.09,0.53 0.6,0.54 L 31.56,48 c 0.41,0.01 0.67,0.33 0.67,0.92 h 0.05 c 0.03,-0.59 0.31,-0.89 0.72,-0.88 l 0.78,0.02 c 0.51,0.02 0.61,-0.07 0.63,-0.51 l 0.01,-0.32 0.4,0.01 z"/>
	<path inkscape:connector-curvature="0" id="path140" d="m 32.87,46.17 -0.55,-0.02 c -1.43,-0.04 -2.17,-0.61 -2.14,-1.63 0.03,-0.97 0.69,-1.5 1.84,-1.47 l 0.88,0.03 c 0.47,0.01 0.74,0.27 0.73,0.69 l -0.02,0.75 c -0.01,0.22 -0.15,0.35 -0.36,0.35 l -1.2,-0.04 c -0.22,-0.01 -0.35,-0.12 -0.35,-0.29 0.01,-0.17 0.15,-0.28 0.37,-0.27 l 1.22,0.04 0.01,-0.48 c 0.01,-0.27 -0.1,-0.37 -0.39,-0.38 l -0.82,-0.02 c -1,-0.03 -1.52,0.35 -1.54,1.12 -0.02,0.82 0.54,1.21 1.82,1.25 l 0.45,0.01 c 1.3,0.04 1.9,-0.35 1.92,-1.24 0.01,-0.26 -0.03,-0.54 -0.09,-0.67 H 35 c 0.06,0.14 0.1,0.43 0.09,0.72 -0.03,1.06 -0.79,1.59 -2.22,1.55 z"/>
	<path inkscape:connector-curvature="0" id="path142" d="m 40.75,90.55 -0.4,-0.01 0.01,-0.32 c 0.01,-0.44 -0.09,-0.53 -0.6,-0.54 l -0.78,-0.02 c -0.41,-0.01 -0.67,-0.33 -0.67,-0.92 h -0.05 c -0.03,0.59 -0.31,0.89 -0.72,0.88 L 36.76,89.6 c -0.51,-0.02 -0.61,0.07 -0.63,0.51 L 36.32,90.23 35.97,90.09 35.73,90 c 0.02,-0.71 0.25,-0.93 0.98,-0.91 l 0.66,0.02 c 0.45,0.01 0.72,-0.24 0.67,-0.93 l 0.53,0.02 c -0.09,0.68 0.17,0.95 0.62,0.97 l 0.66,0.02 c 0.72,0.02 0.94,0.25 0.92,0.97 z"/>
	<path inkscape:connector-curvature="0" id="path144" d="m 38.09,86.45 -1.85,-0.06 0.02,-0.52 1.85,0.06 z m 0.03,-1.14 -1.85,-0.06 0.02,-0.53 1.85,0.06 z"/>
	<path inkscape:connector-curvature="0" id="path146" d="m 42.01,82.25 -6.04,-0.18 0.01,-0.46 6.04,0.18 z"/>
	<path inkscape:connector-curvature="0" id="path148" d="m 40.76,76.74 -0.01,0.45 -2.19,-0.07 c -0.39,-0.01 -0.59,0.12 -0.6,0.39 -0.01,0.28 0.23,0.46 0.63,0.47 l 2.14,0.06 -0.01,0.45 -2.2,-0.07 c -0.38,-0.01 -0.59,0.12 -0.6,0.39 -0.01,0.28 0.23,0.46 0.62,0.48 l 2.14,0.06 -0.01,0.45 -3.18,-0.09 0.01,-0.45 0.45,0.01 v -0.05 c -0.32,-0.09 -0.5,-0.32 -0.49,-0.62 0.01,-0.3 0.2,-0.5 0.51,-0.56 v -0.05 c -0.3,-0.09 -0.49,-0.35 -0.48,-0.67 0.01,-0.44 0.33,-0.66 0.92,-0.65 z"/>
	<path inkscape:connector-curvature="0" id="path150" d="m 41.24,73.79 -5.09,1.91 0.01,-0.49 5.09,-1.91 z"/>
	<path inkscape:connector-curvature="0" id="path152" d="m 40.47,70.09 c 0.35,0.17 0.52,0.51 0.51,0.97 -0.02,0.74 -0.57,1.2 -1.38,1.18 L 39,72.22 C 38.19,72.2 37.67,71.7 37.69,70.96 37.7,70.5 37.91,70.17 38.26,70.04 v -0.05 l -1.74,-0.05 0.02,-0.51 4.42,0.13 -0.01,0.49 -0.49,-0.01 z m -0.93,1.64 c 0.59,0.02 0.97,-0.31 0.99,-0.83 0.02,-0.52 -0.35,-0.87 -0.94,-0.89 L 39.13,70 c -0.59,-0.02 -0.97,0.31 -0.99,0.83 -0.02,0.52 0.35,0.87 0.93,0.89 z"/>
	<path inkscape:connector-curvature="0" id="path154" d="m 39.87,68.54 0.01,-0.5 c 0.44,-0.03 0.76,-0.4 0.77,-0.9 0.02,-0.54 -0.36,-0.92 -0.93,-0.94 -0.58,-0.02 -0.98,0.34 -1,0.88 -0.01,0.38 0.15,0.7 0.45,0.87 l -0.01,0.49 -2.38,-0.28 0.07,-2.31 0.47,0.01 -0.06,1.9 1.38,0.16 v -0.05 c -0.25,-0.22 -0.37,-0.52 -0.36,-0.89 0.02,-0.78 0.62,-1.31 1.45,-1.28 0.86,0.03 1.42,0.63 1.39,1.48 -0.02,0.8 -0.52,1.34 -1.25,1.36 z"/>
	<path inkscape:connector-curvature="0" id="path156" d="m 37.91,63.34 c 0.02,-0.66 0.36,-1.1 0.9,-1.14 l -0.01,0.48 c -0.28,0.05 -0.46,0.31 -0.47,0.68 -0.01,0.4 0.17,0.67 0.46,0.68 0.24,0.01 0.39,-0.15 0.49,-0.55 l 0.12,-0.44 c 0.16,-0.61 0.44,-0.89 0.9,-0.87 0.59,0.02 0.95,0.52 0.93,1.27 -0.02,0.72 -0.37,1.19 -0.92,1.23 l 0.02,-0.51 c 0.3,-0.06 0.47,-0.34 0.49,-0.75 0.01,-0.43 -0.18,-0.71 -0.48,-0.72 -0.25,-0.01 -0.39,0.14 -0.49,0.55 L 39.7,63.7 c -0.15,0.57 -0.45,0.85 -0.9,0.83 -0.55,-0.01 -0.91,-0.49 -0.89,-1.19 z"/>
	<path inkscape:connector-curvature="0" id="path158" d="m 38.88,59.93 -1.85,-0.06 0.02,-0.52 1.85,0.06 z"/>
	<path inkscape:connector-curvature="0" id="path160" d="M 38.99,56.22 37.14,56.16 37.16,55.64 39,55.7 Z"/>
	<path inkscape:connector-curvature="0" id="path162" d="m 41.52,51.02 -0.01,0.48 -0.56,-0.02 v 0.04 c 0.39,0.18 0.6,0.55 0.59,1.03 -0.02,0.69 -0.44,1.05 -1.21,1.03 l -2.06,-0.06 0.01,-0.5 1.94,0.06 c 0.57,0.02 0.85,-0.21 0.87,-0.7 0.02,-0.52 -0.34,-0.89 -0.88,-0.9 l -1.87,-0.06 0.01,-0.5 z"/>
	<path inkscape:connector-curvature="0" id="path164" d="m 12.19,28.31 -0.21,-0.34 0.27,-0.17 c 0.37,-0.23 0.39,-0.36 0.12,-0.8 l -0.41,-0.66 c -0.22,-0.35 -0.1,-0.74 0.4,-1.07 l -0.02,-0.04 c -0.51,0.3 -0.92,0.23 -1.13,-0.12 L 10.8,24.45 C 10.53,24.02 10.41,23.97 10.03,24.21 L 9.76,24.38 9.55,24.04 9.89,23.83 c 0.61,-0.38 0.92,-0.3 1.3,0.31 l 0.35,0.56 c 0.24,0.39 0.6,0.47 1.15,0.05 l 0.28,0.45 c -0.62,0.3 -0.7,0.66 -0.47,1.05 l 0.35,0.56 c 0.38,0.62 0.31,0.93 -0.3,1.3 z"/>
	<path inkscape:connector-curvature="0" id="path166" d="m 14.15,23.83 -0.98,-1.57 0.44,-0.27 0.98,1.57 z m 0.97,-0.6 -0.98,-1.57 0.45,-0.28 0.98,1.57 z"/>
	<path inkscape:connector-curvature="0" id="path168" d="m 17.3,21.88 -0.98,-1.57 0.44,-0.27 0.98,1.57 z m 0.97,-0.6 -0.98,-1.57 0.45,-0.28 0.98,1.57 z"/>
	<path inkscape:connector-curvature="0" id="path170" d="m 21.45,19.36 c 0.82,-0.27 1.3,-0.15 1.63,0.38 0.37,0.59 0.19,1.26 -0.44,1.72 l 0.17,0.28 -0.3,0.18 -0.17,-0.28 C 21.65,22 20.98,21.88 20.58,21.31 l 0.4,-0.25 c 0.26,0.33 0.69,0.4 1.13,0.2 L 21.26,19.9 21.2,19.92 c -0.78,0.25 -1.28,0.13 -1.6,-0.39 -0.35,-0.56 -0.18,-1.19 0.42,-1.64 l -0.17,-0.28 0.3,-0.18 0.17,0.28 c 0.63,-0.32 1.26,-0.19 1.63,0.34 l -0.39,0.24 c -0.25,-0.31 -0.62,-0.38 -1.01,-0.21 l 0.8,1.29 z m -1.19,-1.08 c -0.36,0.29 -0.46,0.66 -0.25,1 0.19,0.31 0.48,0.37 1,0.22 z m 2.15,2.81 c 0.38,-0.3 0.5,-0.72 0.28,-1.08 -0.2,-0.33 -0.52,-0.39 -1.08,-0.21 z"/>
	<path inkscape:connector-curvature="0" id="path172" d="m 26.41,19.5 c -0.61,0.38 -0.92,0.3 -1.3,-0.31 l -0.35,-0.56 c -0.24,-0.38 -0.6,-0.47 -1.15,-0.05 l -0.28,-0.45 c 0.62,-0.3 0.71,-0.66 0.47,-1.05 l -0.35,-0.56 c -0.38,-0.62 -0.31,-0.93 0.3,-1.3 l 0.34,-0.21 0.21,0.34 -0.27,0.17 c -0.37,0.23 -0.39,0.36 -0.12,0.8 l 0.41,0.66 c 0.22,0.35 0.1,0.74 -0.4,1.07 l 0.02,0.04 c 0.51,-0.3 0.92,-0.23 1.13,0.11 l 0.41,0.66 c 0.27,0.43 0.39,0.48 0.77,0.24 l 0.27,-0.17 0.21,0.34 z"/>
	<path inkscape:connector-curvature="0" id="path174" d="m 26.58,17.05 -0.29,-0.47 c -0.75,-1.21 -0.69,-2.14 0.18,-2.68 0.83,-0.51 1.63,-0.26 2.24,0.73 l 0.46,0.74 c 0.25,0.4 0.19,0.77 -0.17,0.99 l -0.63,0.39 c -0.19,0.12 -0.38,0.07 -0.49,-0.11 l -0.63,-1.02 c -0.12,-0.19 -0.09,-0.36 0.05,-0.45 0.14,-0.09 0.31,-0.03 0.43,0.16 l 0.64,1.03 0.41,-0.25 c 0.23,-0.14 0.26,-0.29 0.1,-0.54 l -0.43,-0.7 c -0.53,-0.85 -1.13,-1.07 -1.79,-0.67 -0.7,0.43 -0.71,1.12 -0.04,2.21 l 0.24,0.39 c 0.68,1.1 1.34,1.39 2.1,0.92 0.22,-0.14 0.44,-0.32 0.51,-0.44 l 0.18,0.29 c -0.08,0.13 -0.31,0.32 -0.55,0.48 -0.9,0.55 -1.76,0.21 -2.52,-1 z"/>
	<path inkscape:connector-curvature="0" id="path176" d="M 28.66,14 28.5,13.74 c -0.29,-0.46 -0.2,-0.92 0.21,-1.18 0.42,-0.26 0.87,-0.13 1.16,0.33 l 0.16,0.26 c 0.29,0.47 0.21,0.93 -0.21,1.19 C 29.4,14.6 28.95,14.47 28.66,14 Z m 2.79,-2.54 -1.16,5.16 -0.24,-0.39 1.16,-5.16 z m -1.77,1.84 -0.1,-0.16 c -0.2,-0.33 -0.43,-0.42 -0.67,-0.28 -0.23,0.15 -0.25,0.39 -0.05,0.72 l 0.1,0.16 c 0.2,0.33 0.43,0.42 0.67,0.28 0.23,-0.14 0.25,-0.39 0.05,-0.72 z m 1.95,1.5 -0.16,-0.26 c -0.29,-0.46 -0.21,-0.92 0.21,-1.18 0.42,-0.26 0.87,-0.13 1.16,0.33 L 33,13.95 c 0.29,0.47 0.21,0.93 -0.21,1.19 -0.43,0.26 -0.87,0.13 -1.16,-0.34 z m 1.01,-0.7 -0.1,-0.16 c -0.2,-0.33 -0.43,-0.42 -0.67,-0.28 -0.24,0.15 -0.25,0.39 -0.05,0.72 l 0.1,0.16 c 0.2,0.33 0.43,0.42 0.67,0.28 0.24,-0.14 0.26,-0.39 0.05,-0.72 z"/>
	<path inkscape:connector-curvature="0" id="path178" d="m 31.82,12.04 -0.16,-0.26 c -0.29,-0.46 -0.2,-0.92 0.21,-1.18 0.42,-0.26 0.87,-0.13 1.16,0.33 l 0.16,0.26 c 0.29,0.47 0.21,0.93 -0.21,1.19 -0.43,0.26 -0.87,0.13 -1.16,-0.34 z m 2.79,-2.53 -1.16,5.16 -0.24,-0.39 1.16,-5.16 z m -1.78,1.84 -0.1,-0.16 c -0.2,-0.33 -0.43,-0.42 -0.67,-0.28 -0.23,0.15 -0.25,0.39 -0.05,0.72 l 0.1,0.16 c 0.2,0.33 0.43,0.42 0.67,0.28 0.24,-0.15 0.25,-0.4 0.05,-0.72 z m 1.95,1.49 -0.16,-0.26 c -0.29,-0.46 -0.21,-0.92 0.21,-1.18 0.42,-0.26 0.87,-0.13 1.16,0.33 L 36.15,12 c 0.29,0.47 0.21,0.93 -0.21,1.19 -0.42,0.26 -0.87,0.12 -1.16,-0.35 z m 1.02,-0.69 -0.1,-0.16 c -0.2,-0.33 -0.43,-0.42 -0.67,-0.28 -0.24,0.15 -0.25,0.39 -0.05,0.72 l 0.1,0.16 c 0.2,0.33 0.43,0.42 0.67,0.28 0.23,-0.14 0.25,-0.39 0.05,-0.72 z"/>
	<path inkscape:connector-curvature="0" id="path180" d="M 37.23,12.32 36.99,11.93 37.72,11.48 35.98,8.67 35.25,9.12 35,8.73 l 1.89,-1.17 0.24,0.39 -0.72,0.45 1.74,2.81 0.73,-0.45 0.24,0.39 z"/>
	<path inkscape:connector-curvature="0" id="path182" d="m 42.44,8.55 0.24,0.39 -2.5,1.55 L 39.94,10.1 41,9.45 39.32,6.74 39.28,6.76 38.66,8.06 38.37,7.6 39.01,6.24 39.44,5.97 41.43,9.18 Z"/>
	<path inkscape:connector-curvature="0" id="path184" d="m 42.36,4.16 c 0.7,-0.43 1.44,-0.26 1.87,0.44 0.43,0.69 0.25,1.44 -0.45,1.87 l -0.74,0.46 0.8,1.29 -0.45,0.28 -2.22,-3.6 z m 0.43,2.38 0.64,-0.4 C 43.95,5.82 44.08,5.36 43.78,4.87 43.48,4.38 43.01,4.29 42.49,4.61 l -0.64,0.4 z"/>
	<path inkscape:connector-curvature="0" id="path186" d="m 21.2,30.73 -0.38,0.24 -1.16,-1.86 c -0.2,-0.33 -0.43,-0.43 -0.66,-0.29 -0.24,0.15 -0.25,0.44 -0.04,0.78 l 1.13,1.82 -0.38,0.23 -1.16,-1.87 c -0.2,-0.33 -0.43,-0.42 -0.66,-0.28 -0.24,0.15 -0.26,0.45 -0.05,0.78 l 1.13,1.82 -0.38,0.24 -1.67,-2.7 0.38,-0.23 0.24,0.38 0.04,-0.03 c -0.1,-0.31 -0.01,-0.59 0.25,-0.75 0.26,-0.16 0.53,-0.11 0.75,0.12 l 0.04,-0.03 c -0.09,-0.3 0.02,-0.6 0.3,-0.77 0.38,-0.23 0.73,-0.09 1.05,0.41 z"/>
	<path inkscape:connector-curvature="0" id="path188" d="m 22.09,27.44 c 0.82,-0.27 1.3,-0.15 1.63,0.38 0.37,0.59 0.19,1.26 -0.44,1.72 l 0.17,0.28 -0.29,0.18 -0.17,-0.28 c -0.69,0.36 -1.36,0.24 -1.76,-0.33 l 0.4,-0.25 c 0.26,0.33 0.69,0.4 1.13,0.2 L 21.91,27.98 21.85,28 c -0.78,0.25 -1.28,0.13 -1.6,-0.39 -0.35,-0.56 -0.18,-1.19 0.42,-1.64 l -0.17,-0.28 0.3,-0.18 0.17,0.28 c 0.63,-0.32 1.26,-0.19 1.63,0.34 l -0.39,0.24 C 21.96,26.06 21.59,25.99 21.2,26.16 L 22,27.45 Z M 20.9,26.35 c -0.36,0.29 -0.46,0.66 -0.25,1 0.19,0.31 0.48,0.37 1,0.22 z m 2.15,2.82 c 0.38,-0.3 0.5,-0.72 0.28,-1.08 -0.2,-0.33 -0.52,-0.39 -1.08,-0.21 z"/>
	<path inkscape:connector-curvature="0" id="path190" d="m 27.05,27.58 c -0.61,0.38 -0.92,0.3 -1.3,-0.31 L 25.4,26.71 c -0.24,-0.38 -0.6,-0.47 -1.15,-0.05 l -0.28,-0.45 c 0.62,-0.3 0.71,-0.66 0.47,-1.05 L 24.1,24.6 c -0.38,-0.62 -0.31,-0.93 0.3,-1.3 l 0.34,-0.21 0.21,0.34 -0.27,0.17 c -0.37,0.23 -0.39,0.36 -0.12,0.8 l 0.41,0.66 c 0.22,0.35 0.1,0.74 -0.4,1.07 l 0.02,0.04 c 0.51,-0.3 0.92,-0.23 1.13,0.11 l 0.41,0.66 c 0.27,0.43 0.39,0.48 0.77,0.24 l 0.27,-0.17 0.21,0.34 z"/>
	<path inkscape:connector-curvature="0" id="path192" d="m 27.23,25.12 -0.29,-0.47 c -0.75,-1.21 -0.69,-2.14 0.18,-2.68 0.83,-0.51 1.63,-0.26 2.24,0.73 l 0.46,0.74 c 0.25,0.4 0.19,0.77 -0.17,0.99 l -0.63,0.39 c -0.19,0.12 -0.38,0.07 -0.49,-0.11 L 27.9,23.69 c -0.12,-0.19 -0.09,-0.36 0.05,-0.45 0.14,-0.09 0.31,-0.03 0.43,0.16 l 0.64,1.03 0.41,-0.25 c 0.23,-0.14 0.26,-0.29 0.1,-0.54 l -0.43,-0.7 c -0.53,-0.85 -1.13,-1.07 -1.79,-0.67 -0.7,0.43 -0.71,1.12 -0.04,2.21 l 0.24,0.39 c 0.68,1.1 1.34,1.39 2.1,0.92 0.22,-0.14 0.44,-0.32 0.51,-0.44 l 0.18,0.29 c -0.08,0.13 -0.31,0.32 -0.55,0.48 -0.91,0.55 -1.77,0.21 -2.52,-1 z"/>
	<path inkscape:connector-curvature="0" id="path194" d="m 29.31,22.07 -0.16,-0.26 c -0.29,-0.46 -0.2,-0.92 0.21,-1.18 0.42,-0.26 0.87,-0.13 1.16,0.33 l 0.16,0.26 c 0.29,0.47 0.21,0.93 -0.21,1.19 -0.43,0.26 -0.87,0.13 -1.16,-0.34 z m 2.79,-2.54 -1.16,5.16 -0.24,-0.39 1.16,-5.16 z m -1.78,1.85 -0.1,-0.16 c -0.2,-0.33 -0.43,-0.42 -0.67,-0.28 -0.23,0.15 -0.25,0.39 -0.05,0.72 l 0.1,0.16 c 0.2,0.33 0.43,0.42 0.67,0.28 0.24,-0.15 0.25,-0.4 0.05,-0.72 z m 1.95,1.49 -0.16,-0.26 c -0.29,-0.46 -0.21,-0.92 0.21,-1.18 0.42,-0.26 0.87,-0.13 1.16,0.33 l 0.16,0.26 c 0.29,0.47 0.21,0.93 -0.21,1.19 -0.42,0.27 -0.87,0.13 -1.16,-0.34 z m 1.01,-0.69 -0.1,-0.16 c -0.2,-0.33 -0.43,-0.42 -0.67,-0.28 -0.24,0.15 -0.25,0.39 -0.05,0.72 l 0.1,0.16 c 0.2,0.33 0.43,0.42 0.67,0.28 0.24,-0.14 0.26,-0.4 0.05,-0.72 z"/>
	<path inkscape:connector-curvature="0" id="path196" d="m 34.47,22.5 -2.23,-3.59 0.42,-0.26 3.27,1.84 0.03,-0.02 -1.73,-2.8 0.4,-0.25 2.23,3.59 -0.42,0.26 -3.28,-1.85 -0.03,0.02 1.74,2.8 z"/>
	<path inkscape:connector-curvature="0" id="path198" d="m 38.15,18.78 -0.04,1.46 -0.47,0.29 0.09,-1.93 -1.77,-0.77 0.5,-0.31 1.31,0.61 0.03,-0.02 0.04,-1.44 0.48,-0.29 -0.1,1.9 1.78,0.79 -0.49,0.3 -1.33,-0.62 z"/>
	<path inkscape:connector-curvature="0" id="path200" d="m 42.52,19.18 -3.18,-5.14 0.39,-0.24 3.18,5.14 z"/>
	<path inkscape:connector-curvature="0" id="path202" d="m 46,15.83 -4.4,-3.19 0.42,-0.26 4.4,3.19 z"/>
	<path inkscape:connector-curvature="0" id="path204" d="m 46.37,10.65 -1.18,-0.43 0.52,-0.32 1.12,0.48 z"/>
	<path inkscape:connector-curvature="0" id="path206" d="M 52.54,11.87 51.97,11.6 c -0.12,0.18 -0.29,0.34 -0.5,0.47 -0.82,0.51 -1.68,0.23 -2.3,-0.76 l -0.36,-0.58 c -0.62,-0.99 -0.48,-1.89 0.34,-2.4 0.82,-0.51 1.68,-0.23 2.3,0.76 l 0.36,0.58 c 0.34,0.55 0.45,1.06 0.35,1.5 l 0.86,0.41 z m -2.93,-0.84 c 0.47,0.75 1.06,0.97 1.61,0.63 0.13,-0.08 0.23,-0.17 0.3,-0.28 l -0.95,-0.45 0.47,-0.29 0.64,0.3 c 0.02,-0.29 -0.08,-0.63 -0.31,-1 L 51.02,9.37 C 50.55,8.61 49.96,8.4 49.41,8.74 48.86,9.08 48.79,9.71 49.26,10.46 Z"/>
	<path inkscape:connector-curvature="0" id="path208" d="m 53.81,10.98 -0.21,-0.34 0.27,-0.17 c 0.37,-0.23 0.39,-0.36 0.12,-0.8 L 53.58,9.01 C 53.36,8.66 53.48,8.27 53.98,7.94 L 53.96,7.9 C 53.45,8.2 53.04,8.13 52.83,7.78 L 52.42,7.12 C 52.15,6.69 52.03,6.64 51.65,6.88 L 51.38,7.05 51.16,6.7 51.5,6.5 c 0.61,-0.38 0.92,-0.3 1.3,0.31 l 0.35,0.56 c 0.24,0.39 0.6,0.47 1.15,0.05 l 0.28,0.45 c -0.62,0.3 -0.7,0.66 -0.47,1.05 l 0.35,0.56 c 0.38,0.62 0.31,0.93 -0.3,1.3 z"/>
	<path inkscape:connector-curvature="0" id="path210" d="m 21.74,36.07 -0.98,-1.57 0.44,-0.27 0.98,1.57 z m 0.97,-0.6 -0.98,-1.57 0.45,-0.28 0.98,1.57 z"/>
	<path inkscape:connector-curvature="0" id="path212" d="m 24.2,31.89 c 0.84,0.26 1.55,0.83 2.08,1.68 0.52,0.85 0.72,1.74 0.58,2.61 l -0.42,0.26 c 0.07,-1.04 -0.11,-1.81 -0.6,-2.6 -0.48,-0.78 -1.1,-1.28 -2.06,-1.69 z"/>
	<path inkscape:connector-curvature="0" id="path214" d="m 28.04,32.16 -0.98,-1.57 0.44,-0.27 0.98,1.57 z m 0.97,-0.6 -0.98,-1.57 0.45,-0.28 0.98,1.57 z"/>
	<path inkscape:connector-curvature="0" id="path216" d="M 33.09,32.97 32.31,31 l 0.57,-0.36 0.65,2.05 z m -1.85,-3.26 c -0.16,-0.25 -0.08,-0.59 0.17,-0.74 0.25,-0.15 0.58,-0.07 0.74,0.18 0.16,0.25 0.08,0.59 -0.17,0.74 -0.25,0.15 -0.59,0.07 -0.74,-0.18 z"/>
	<path inkscape:connector-curvature="0" id="path218" d="m 36.51,27.49 0.31,0.5 c 0.43,0.69 0.3,1.4 -0.32,1.78 -0.39,0.24 -0.78,0.25 -1.08,0.03 l -0.05,0.03 0.82,1.33 -0.43,0.27 -2.24,-3.61 0.42,-0.26 0.26,0.41 0.04,-0.03 c -0.04,-0.39 0.14,-0.72 0.53,-0.96 0.62,-0.38 1.31,-0.18 1.74,0.51 z m -1.85,1.23 0.24,0.39 c 0.31,0.5 0.79,0.64 1.24,0.37 0.45,-0.28 0.53,-0.77 0.22,-1.27 l -0.24,-0.39 c -0.31,-0.5 -0.79,-0.64 -1.24,-0.36 -0.44,0.27 -0.52,0.76 -0.22,1.26 z"/>
	<path inkscape:connector-curvature="0" id="path220" d="m 38.5,25.74 c 0.82,-0.27 1.3,-0.15 1.63,0.38 0.37,0.59 0.19,1.26 -0.44,1.72 l 0.17,0.28 -0.3,0.18 -0.17,-0.28 c -0.69,0.36 -1.36,0.24 -1.76,-0.33 l 0.4,-0.25 c 0.26,0.33 0.69,0.4 1.13,0.2 l -0.85,-1.36 -0.06,0.02 c -0.78,0.25 -1.28,0.13 -1.6,-0.39 -0.35,-0.56 -0.18,-1.19 0.42,-1.64 l -0.17,-0.28 0.3,-0.18 0.17,0.28 C 38,23.77 38.63,23.9 39,24.43 l -0.39,0.24 C 38.36,24.36 37.99,24.29 37.6,24.46 l 0.8,1.29 z m -1.2,-1.09 c -0.36,0.29 -0.46,0.66 -0.25,1 0.19,0.31 0.48,0.37 1,0.22 z m 2.16,2.82 c 0.38,-0.3 0.5,-0.72 0.28,-1.08 -0.2,-0.33 -0.52,-0.39 -1.08,-0.21 z"/>
	<path inkscape:connector-curvature="0" id="path222" d="m 43.45,25.88 c -0.61,0.38 -0.92,0.3 -1.3,-0.31 L 41.8,25.01 c -0.24,-0.38 -0.6,-0.47 -1.15,-0.05 l -0.28,-0.45 c 0.62,-0.3 0.71,-0.66 0.47,-1.05 L 40.5,22.9 c -0.38,-0.62 -0.31,-0.93 0.3,-1.3 l 0.34,-0.21 0.21,0.34 -0.27,0.17 c -0.37,0.23 -0.39,0.36 -0.12,0.8 l 0.41,0.66 c 0.22,0.35 0.1,0.74 -0.4,1.07 l 0.02,0.04 c 0.51,-0.3 0.92,-0.23 1.13,0.11 l 0.41,0.66 c 0.27,0.43 0.39,0.48 0.77,0.24 l 0.27,-0.17 0.21,0.34 z"/>
	<path inkscape:connector-curvature="0" id="path224" d="m 45.08,22.19 1.39,-0.08 0.02,0.43 -1.41,0.01 0.77,1.17 -0.35,0.22 -0.71,-1.21 -0.63,1.26 -0.38,-0.21 0.69,-1.21 -1.39,0.08 -0.02,-0.43 h 1.41 l -0.77,-1.17 0.35,-0.22 0.71,1.21 0.63,-1.26 0.38,0.21 z"/>
	<path inkscape:connector-curvature="0" id="path226" d="m 48.04,23.03 -0.9,-5.36 0.42,-0.26 0.9,5.36 z"/>
	<path inkscape:connector-curvature="0" id="path228" d="m 51.11,17.92 c 0.82,-0.27 1.3,-0.15 1.63,0.38 0.37,0.59 0.19,1.26 -0.44,1.72 l 0.17,0.28 -0.3,0.18 L 52,20.21 c -0.69,0.36 -1.36,0.24 -1.76,-0.33 l 0.4,-0.25 c 0.26,0.33 0.69,0.4 1.13,0.2 l -0.85,-1.36 -0.06,0.02 c -0.78,0.25 -1.28,0.13 -1.6,-0.39 -0.35,-0.56 -0.18,-1.19 0.42,-1.64 l -0.17,-0.28 0.3,-0.18 0.17,0.28 c 0.63,-0.32 1.26,-0.19 1.63,0.34 l -0.39,0.24 C 50.97,16.55 50.6,16.48 50.21,16.65 l 0.8,1.29 z m -1.2,-1.08 c -0.36,0.29 -0.46,0.66 -0.25,1 0.19,0.31 0.48,0.37 1,0.22 z m 2.16,2.81 c 0.38,-0.3 0.5,-0.72 0.28,-1.08 -0.2,-0.33 -0.52,-0.39 -1.08,-0.21 z"/>
	<path inkscape:connector-curvature="0" id="path230" d="m 55.43,15.76 0.31,0.5 c 0.43,0.69 0.3,1.4 -0.32,1.78 -0.39,0.24 -0.78,0.25 -1.08,0.03 l -0.05,0.03 0.82,1.33 -0.43,0.27 -2.24,-3.61 0.42,-0.26 0.26,0.41 0.04,-0.03 c -0.04,-0.39 0.14,-0.72 0.53,-0.96 0.62,-0.38 1.31,-0.18 1.74,0.51 z m -1.85,1.23 0.24,0.39 c 0.31,0.5 0.79,0.64 1.24,0.37 0.45,-0.28 0.53,-0.77 0.22,-1.27 l -0.24,-0.39 c -0.31,-0.5 -0.79,-0.64 -1.24,-0.36 -0.44,0.27 -0.53,0.76 -0.22,1.26 z"/>
	<path inkscape:connector-curvature="0" id="path232" d="m 58.15,16.29 -0.92,-1.48 -2.51,-1.37 0.49,-0.3 1.93,1.08 0.03,-0.02 -0.11,-2.21 0.49,-0.3 0.11,2.85 0.92,1.48 z"/>
	<path inkscape:connector-curvature="0" id="path234" d="m 58.99,13.06 -0.25,-0.41 2.36,-1.46 0.53,0.24 z m 0.71,1.14 -0.25,-0.41 2.63,-1.63 0.25,0.41 z"/>
	<path inkscape:connector-curvature="0" id="path236" d="m 33.73,41.06 -0.78,-1.98 0.57,-0.36 0.65,2.06 z"/>
	<path inkscape:connector-curvature="0" id="path238" d="m 36.18,38.85 -0.21,-0.34 0.27,-0.17 c 0.37,-0.23 0.39,-0.36 0.12,-0.8 l -0.41,-0.66 c -0.22,-0.35 -0.1,-0.74 0.4,-1.07 L 36.33,35.77 C 35.82,36.07 35.41,36 35.2,35.65 L 34.79,35 C 34.52,34.57 34.4,34.52 34.02,34.76 l -0.27,0.17 -0.21,-0.34 0.34,-0.21 c 0.61,-0.38 0.92,-0.3 1.3,0.31 l 0.35,0.56 c 0.24,0.39 0.6,0.47 1.15,0.05 l 0.28,0.45 c -0.62,0.3 -0.7,0.66 -0.47,1.05 l 0.35,0.56 c 0.38,0.62 0.31,0.93 -0.3,1.3 z"/>
	<path inkscape:connector-curvature="0" id="path240" d="m 40.65,37.28 -3.18,-5.14 0.39,-0.24 3.18,5.14 z"/>
	<path inkscape:connector-curvature="0" id="path242" d="m 44.13,33.93 -4.4,-3.19 0.42,-0.26 4.4,3.19 z"/>
	<path inkscape:connector-curvature="0" id="path244" d="m 47.7,31.24 -0.38,0.24 -1.16,-1.86 c -0.2,-0.33 -0.43,-0.43 -0.66,-0.29 -0.24,0.15 -0.25,0.44 -0.04,0.78 l 1.13,1.82 -0.38,0.23 -1.16,-1.87 c -0.2,-0.33 -0.43,-0.42 -0.66,-0.28 -0.24,0.15 -0.26,0.45 -0.05,0.78 l 1.13,1.82 -0.38,0.24 -1.67,-2.7 0.38,-0.23 0.24,0.38 0.04,-0.03 c -0.1,-0.31 -0.01,-0.59 0.25,-0.75 0.25,-0.16 0.53,-0.11 0.75,0.12 l 0.04,-0.03 c -0.09,-0.3 0.02,-0.6 0.3,-0.77 0.38,-0.23 0.73,-0.09 1.05,0.41 z"/>
	<path inkscape:connector-curvature="0" id="path246" d="m 49.94,29.28 c 0.05,0.39 -0.14,0.72 -0.53,0.96 -0.62,0.39 -1.31,0.19 -1.74,-0.5 l -0.31,-0.5 c -0.43,-0.69 -0.3,-1.4 0.32,-1.78 0.39,-0.24 0.78,-0.25 1.08,-0.03 l 0.04,-0.03 -0.92,-1.48 0.43,-0.27 2.33,3.76 -0.42,0.26 -0.26,-0.41 z m -1.88,0.13 c 0.31,0.5 0.79,0.64 1.24,0.37 0.44,-0.27 0.53,-0.77 0.22,-1.27 l -0.24,-0.39 c -0.31,-0.5 -0.79,-0.64 -1.24,-0.36 -0.45,0.28 -0.53,0.77 -0.23,1.27 z"/>
	<path inkscape:connector-curvature="0" id="path248" d="m 51.23,26.26 -0.98,-1.57 0.45,-0.28 0.98,1.57 z"/>
	<path inkscape:connector-curvature="0" id="path250" d="m 54.38,24.3 -0.98,-1.57 0.45,-0.28 0.98,1.57 z"/>
	<path inkscape:connector-curvature="0" id="path252" d="m 58.05,22.08 c 0.82,-0.27 1.3,-0.15 1.63,0.38 0.37,0.59 0.19,1.26 -0.44,1.72 l 0.17,0.28 -0.3,0.18 -0.17,-0.28 c -0.69,0.36 -1.36,0.24 -1.76,-0.33 l 0.4,-0.25 c 0.26,0.33 0.69,0.4 1.13,0.2 l -0.85,-1.36 -0.06,0.02 c -0.78,0.25 -1.28,0.13 -1.6,-0.39 -0.35,-0.56 -0.18,-1.19 0.42,-1.64 l -0.17,-0.28 0.3,-0.18 0.17,0.28 c 0.63,-0.32 1.26,-0.19 1.63,0.34 l -0.39,0.24 C 57.91,20.7 57.54,20.63 57.15,20.8 l 0.8,1.29 z M 56.86,21 c -0.36,0.29 -0.46,0.66 -0.25,1 0.19,0.31 0.48,0.37 1,0.22 z m 2.15,2.82 c 0.38,-0.3 0.5,-0.72 0.28,-1.08 -0.2,-0.33 -0.52,-0.39 -1.08,-0.21 z"/>
	<path inkscape:connector-curvature="0" id="path254" d="m 63.01,22.22 c -0.61,0.38 -0.92,0.3 -1.3,-0.31 l -0.35,-0.56 c -0.24,-0.38 -0.6,-0.47 -1.15,-0.05 l -0.28,-0.45 c 0.62,-0.3 0.71,-0.66 0.47,-1.05 l -0.35,-0.56 c -0.38,-0.62 -0.31,-0.93 0.3,-1.3 l 0.34,-0.21 0.21,0.34 -0.27,0.17 c -0.37,0.23 -0.39,0.36 -0.12,0.8 l 0.41,0.66 c 0.22,0.35 0.1,0.74 -0.4,1.07 l 0.02,0.04 c 0.51,-0.3 0.92,-0.23 1.13,0.11 l 0.41,0.66 c 0.27,0.43 0.39,0.48 0.77,0.24 l 0.27,-0.17 0.21,0.34 z"/>
	<path inkscape:connector-curvature="0" id="path256" d="m 64.63,18.54 1.39,-0.08 0.02,0.43 -1.41,0.01 0.77,1.17 -0.35,0.22 -0.71,-1.21 -0.63,1.26 -0.38,-0.21 0.69,-1.21 -1.39,0.08 -0.02,-0.43 h 1.41 l -0.77,-1.17 0.35,-0.22 0.71,1.21 0.63,-1.26 0.38,0.21 z"/>
	<path inkscape:connector-curvature="0" id="path258" d="m 66.38,17.74 c -0.01,-0.01 -0.03,-0.04 -0.04,-0.06 -0.3,-0.49 -0.22,-0.99 0.2,-1.25 0.24,-0.15 0.47,-0.17 0.83,-0.09 0.28,0.08 0.43,0.08 0.55,0 0.19,-0.12 0.21,-0.35 0.05,-0.65 l 0.39,-0.24 0.03,0.05 c 0.3,0.49 0.23,0.98 -0.19,1.24 -0.24,0.15 -0.48,0.18 -0.83,0.09 -0.29,-0.08 -0.43,-0.08 -0.54,-0.01 -0.21,0.13 -0.23,0.35 -0.06,0.66 z"/>
	<path inkscape:connector-curvature="0" id="path260" d="m 36.53,46.64 -0.22,-0.35 0.93,-0.57 -1.24,-2 -0.92,0.57 -0.22,-0.35 1.34,-0.83 1.46,2.35 0.89,-0.55 0.22,0.35 z m -1.55,-4.18 c -0.12,-0.2 -0.06,-0.44 0.14,-0.56 0.2,-0.12 0.44,-0.07 0.57,0.13 0.12,0.2 0.06,0.44 -0.13,0.57 -0.21,0.12 -0.46,0.06 -0.58,-0.14 z"/>
	<path inkscape:connector-curvature="0" id="path262" d="m 39.78,41.88 c 0.82,-0.27 1.3,-0.15 1.63,0.38 0.37,0.59 0.19,1.26 -0.44,1.72 l 0.17,0.28 -0.3,0.18 -0.17,-0.28 c -0.69,0.36 -1.36,0.24 -1.76,-0.33 l 0.4,-0.25 c 0.26,0.33 0.69,0.4 1.13,0.2 l -0.85,-1.36 -0.06,0.02 c -0.78,0.25 -1.28,0.13 -1.6,-0.39 -0.35,-0.56 -0.18,-1.19 0.42,-1.64 l -0.17,-0.28 0.3,-0.18 0.17,0.28 c 0.63,-0.32 1.26,-0.19 1.63,0.34 l -0.39,0.24 C 39.64,40.5 39.27,40.43 38.88,40.6 l 0.8,1.29 z m -1.2,-1.08 c -0.36,0.29 -0.46,0.66 -0.25,1 0.19,0.31 0.48,0.37 1,0.22 z m 2.16,2.82 c 0.38,-0.3 0.5,-0.72 0.28,-1.08 -0.2,-0.33 -0.52,-0.39 -1.08,-0.21 z"/>
	<path inkscape:connector-curvature="0" id="path264" d="m 44.73,42.02 c -0.61,0.38 -0.92,0.3 -1.3,-0.31 l -0.35,-0.56 c -0.24,-0.38 -0.6,-0.47 -1.15,-0.05 l -0.28,-0.45 c 0.62,-0.3 0.71,-0.66 0.47,-1.05 l -0.35,-0.56 c -0.38,-0.62 -0.31,-0.93 0.3,-1.3 l 0.34,-0.21 0.21,0.34 -0.27,0.17 c -0.37,0.23 -0.39,0.36 -0.12,0.8 l 0.41,0.66 c 0.22,0.35 0.1,0.74 -0.4,1.07 l 0.02,0.04 c 0.51,-0.3 0.92,-0.23 1.13,0.11 l 0.41,0.66 c 0.27,0.43 0.39,0.48 0.77,0.24 l 0.27,-0.17 0.21,0.34 z"/>
	<path inkscape:connector-curvature="0" id="path266" d="m 46.36,38.34 1.39,-0.08 0.02,0.43 -1.41,0.01 0.77,1.17 -0.35,0.22 -0.71,-1.21 -0.63,1.26 -0.38,-0.21 0.69,-1.21 -1.39,0.08 -0.02,-0.43 h 1.41 l -0.77,-1.17 0.35,-0.22 0.71,1.21 0.63,-1.26 0.38,0.21 z"/>
	<path inkscape:connector-curvature="0" id="path268" d="m 48.11,37.54 c -0.01,-0.01 -0.03,-0.04 -0.04,-0.06 -0.3,-0.49 -0.22,-0.99 0.2,-1.25 0.24,-0.15 0.47,-0.17 0.83,-0.09 0.28,0.08 0.43,0.08 0.55,0 0.19,-0.12 0.21,-0.35 0.05,-0.65 l 0.39,-0.24 0.03,0.05 c 0.3,0.49 0.23,0.98 -0.19,1.24 -0.24,0.15 -0.48,0.18 -0.83,0.09 -0.29,-0.08 -0.43,-0.08 -0.54,-0.01 -0.21,0.13 -0.23,0.35 -0.06,0.66 z"/>
	<path inkscape:connector-curvature="0" id="path270" d="m 51.26,35.59 c -0.01,-0.01 -0.03,-0.04 -0.04,-0.06 -0.3,-0.49 -0.22,-0.99 0.2,-1.25 0.24,-0.15 0.47,-0.17 0.83,-0.09 0.28,0.08 0.43,0.08 0.55,0 0.19,-0.12 0.21,-0.35 0.05,-0.65 l 0.39,-0.24 0.03,0.05 c 0.3,0.49 0.23,0.98 -0.19,1.24 -0.24,0.15 -0.48,0.18 -0.83,0.09 -0.29,-0.08 -0.43,-0.08 -0.54,-0.01 -0.21,0.13 -0.23,0.35 -0.06,0.66 z"/>
	<path inkscape:connector-curvature="0" id="path272" d="m 55.74,35.2 -0.21,-0.34 0.27,-0.17 c 0.37,-0.23 0.39,-0.36 0.12,-0.8 l -0.41,-0.66 c -0.22,-0.35 -0.1,-0.74 0.4,-1.07 L 55.89,32.12 C 55.38,32.42 54.97,32.35 54.76,32 L 54.35,31.34 C 54.08,30.91 53.96,30.86 53.58,31.1 l -0.27,0.17 -0.21,-0.34 0.34,-0.21 c 0.61,-0.38 0.92,-0.3 1.3,0.31 l 0.35,0.56 c 0.24,0.39 0.6,0.47 1.15,0.05 l 0.28,0.45 c -0.62,0.3 -0.7,0.66 -0.47,1.05 l 0.35,0.56 c 0.38,0.62 0.31,0.93 -0.3,1.3 z"/>
	<path inkscape:connector-curvature="0" id="path274" d="m 56.87,30.29 0.41,-0.25 0.29,0.48 0.03,-0.02 c -0.06,-0.43 0.13,-0.81 0.54,-1.06 0.59,-0.36 1.12,-0.21 1.53,0.44 l 1.09,1.75 -0.42,0.26 -1.02,-1.65 c -0.3,-0.49 -0.64,-0.59 -1.06,-0.33 -0.45,0.28 -0.55,0.77 -0.27,1.23 l 0.99,1.59 -0.42,0.26 z"/>
	<path inkscape:connector-curvature="0" id="path276" d="m 60.64,26.95 0.45,0.73 1.1,-0.68 0.22,0.36 -1.09,0.68 0.94,1.52 c 0.18,0.29 0.49,0.33 0.87,0.09 0.15,-0.09 0.42,-0.27 0.49,-0.32 l 0.22,0.36 c -0.06,0.05 -0.38,0.27 -0.51,0.35 -0.67,0.42 -1.14,0.35 -1.49,-0.21 l -0.94,-1.53 -0.72,0.45 -0.22,-0.36 0.72,-0.45 -0.45,-0.73 z"/>
	<path inkscape:connector-curvature="0" id="path278" d="m 64.11,26.31 -0.72,0.45 -0.22,-0.36 0.72,-0.45 -0.17,-0.27 c -0.32,-0.52 -0.15,-0.97 0.51,-1.38 0.16,-0.1 0.54,-0.32 0.64,-0.36 l 0.21,0.35 c -0.12,0.06 -0.48,0.27 -0.63,0.36 -0.38,0.23 -0.49,0.5 -0.32,0.77 l 0.17,0.28 1.19,-0.74 0.22,0.36 -1.19,0.74 1.45,2.33 -0.42,0.26 z"/>
	<path inkscape:connector-curvature="0" id="path280" d="m 65.91,24.79 -0.16,-0.26 c -0.29,-0.46 -0.2,-0.92 0.21,-1.18 0.42,-0.26 0.87,-0.13 1.16,0.33 l 0.16,0.26 c 0.29,0.47 0.21,0.93 -0.21,1.19 -0.43,0.26 -0.87,0.13 -1.16,-0.34 z m 2.79,-2.53 -1.16,5.16 -0.24,-0.39 1.16,-5.16 z m -1.78,1.84 -0.1,-0.16 c -0.2,-0.33 -0.43,-0.42 -0.67,-0.28 -0.23,0.15 -0.25,0.39 -0.05,0.72 l 0.1,0.16 c 0.2,0.33 0.43,0.42 0.67,0.28 0.24,-0.15 0.25,-0.39 0.05,-0.72 z m 1.95,1.5 -0.16,-0.26 c -0.29,-0.46 -0.21,-0.92 0.21,-1.18 0.42,-0.26 0.87,-0.13 1.16,0.33 l 0.16,0.26 c 0.29,0.47 0.21,0.93 -0.21,1.19 -0.42,0.26 -0.87,0.12 -1.16,-0.34 z m 1.01,-0.7 -0.1,-0.16 c -0.2,-0.33 -0.43,-0.42 -0.67,-0.28 -0.24,0.15 -0.25,0.39 -0.05,0.72 l 0.1,0.16 c 0.2,0.33 0.43,0.42 0.67,0.28 0.24,-0.14 0.26,-0.39 0.05,-0.72 z"/>
	<path inkscape:connector-curvature="0" id="path282" d="m 70.56,21.73 c 0.56,-0.35 1.12,-0.3 1.45,0.12 L 71.6,22.1 c -0.2,-0.21 -0.51,-0.21 -0.83,-0.01 -0.34,0.21 -0.47,0.51 -0.31,0.76 0.13,0.21 0.34,0.24 0.73,0.1 l 0.43,-0.15 c 0.6,-0.21 0.98,-0.13 1.22,0.27 0.31,0.5 0.09,1.08 -0.55,1.48 -0.61,0.38 -1.2,0.35 -1.53,-0.09 l 0.43,-0.27 c 0.22,0.21 0.55,0.21 0.89,-0.01 0.37,-0.23 0.5,-0.54 0.34,-0.8 -0.13,-0.21 -0.34,-0.25 -0.73,-0.11 l -0.46,0.16 c -0.56,0.19 -0.95,0.09 -1.19,-0.29 -0.28,-0.48 -0.07,-1.04 0.52,-1.41 z"/>
</g><path style="fill:none;stroke:#ed1c24;stroke-miterlimit:10" inkscape:connector-curvature="0" id="path286" d="M 2.66,187.93" class="st5"/></g>
</svg>
